<svg xmlns="http://www.w3.org/2000/svg" fill="none" viewBox="0 0 72 20"><path fill="#1B6561" fill-rule="evenodd" d="M21.014 5.434c.177 1.164-.023 2.53-.992 3.57-.782.84-2.13 1.511-3.455 2.044-1.422.572-3.162 1.116-5.02 1.587-.777.197-1.583.383-2.404.554.148.436.344.826.583 1.161.582.815 1.529 1.465 3.127 1.603 1.435.123 2.546-.15 3.561-.72 1.064-.596 2.108-1.565 3.305-2.976l2.867 2.434c-1.309 1.542-2.694 2.904-4.333 3.823-1.688.946-3.554 1.372-5.723 1.185-2.616-.226-4.599-1.39-5.865-3.164a8.356 8.356 0 0 1-1.251-2.692c-1.89.266-3.75.423-5.414.423v-3.76c1.528 0 3.287-.154 5.1-.417a13.13 13.13 0 0 1 1.592-5.282c.975-1.746 2.43-3.316 4.341-4.106 3.536-1.462 6.572-.476 8.369 1.473.859.932 1.433 2.087 1.612 3.26ZM8.987 9.377a9.298 9.298 0 0 1 .988-2.736c.695-1.244 1.585-2.09 2.495-2.465 2.105-.87 3.456-.224 4.167.547.394.428.603.906.66 1.277.047.312-.02.43-.03.446-.164.171-.794.587-2.104 1.114-1.222.491-2.793.987-4.54 1.43-.534.135-1.082.265-1.636.387Zm8.278-2.93Z" clip-rule="evenodd"/><path fill="#4D8784" d="M26.951 8.805v10.938h-3.393V5.836h3.188l.205 2.969Zm-.54 3.483H25.41c.009-1.011.146-1.928.411-2.75.266-.823.639-1.53 1.119-2.121a5.027 5.027 0 0 1 1.735-1.363c.668-.317 1.414-.475 2.236-.475.669 0 1.273.094 1.812.282.54.189 1.003.489 1.389.9.394.411.694.951.9 1.62.214.66.32 1.473.32 2.442v8.92h-3.418v-8.946c0-.634-.095-1.135-.283-1.504a1.578 1.578 0 0 0-.797-.784c-.343-.154-.767-.231-1.272-.231-.523 0-.982.107-1.376.321a2.843 2.843 0 0 0-.976.861 4.239 4.239 0 0 0-.592 1.273c-.137.48-.206.998-.206 1.555ZM44.047 20c-1.054 0-2.001-.171-2.84-.514a6.237 6.237 0 0 1-2.147-1.427 6.561 6.561 0 0 1-1.35-2.146 7.481 7.481 0 0 1-.463-2.648v-.514c0-1.071.155-2.044.463-2.918.309-.883.746-1.64 1.311-2.275a5.77 5.77 0 0 1 2.031-1.465c.788-.343 1.658-.514 2.61-.514.985 0 1.854.167 2.608.5a5.046 5.046 0 0 1 1.89 1.39c.505.599.887 1.319 1.144 2.158.257.832.385 1.753.385 2.764v1.427h-10.9v-2.34h7.559v-.257a4.097 4.097 0 0 0-.309-1.478 2.362 2.362 0 0 0-.874-1.08c-.394-.274-.904-.41-1.53-.41-.505 0-.946.11-1.323.333a2.657 2.657 0 0 0-.926.926c-.24.394-.42.865-.54 1.414a8.561 8.561 0 0 0-.18 1.825v.514c0 .583.078 1.122.232 1.62.163.496.398.93.707 1.298.317.36.694.642 1.13.848.446.197.952.296 1.517.296.712 0 1.354-.138 1.928-.412a4.293 4.293 0 0 0 1.517-1.246l1.71 1.773c-.292.429-.686.84-1.183 1.234-.488.394-1.08.716-1.774.964-.694.24-1.495.36-2.403.36ZM54.831 8.676v11.067h-3.393V5.836h3.213l.18 2.84Zm4.229-2.93-.051 3.162a6.02 6.02 0 0 0-.643-.077 8.897 8.897 0 0 0-.656-.026c-.522 0-.98.073-1.375.218a2.567 2.567 0 0 0-.99.604 2.667 2.667 0 0 0-.59.977 4.187 4.187 0 0 0-.232 1.286l-.733-.09c0-.883.09-1.701.27-2.455.18-.754.441-1.414.784-1.98.343-.565.771-1.002 1.285-1.31.523-.318 1.123-.476 1.8-.476.188 0 .39.017.604.051.223.026.398.064.527.116ZM67.62 16.787v-6.414c0-.471-.08-.878-.243-1.221a1.765 1.765 0 0 0-.746-.797c-.334-.189-.758-.283-1.272-.283-.454 0-.853.077-1.196.232a1.762 1.762 0 0 0-.77.655c-.18.274-.27.591-.27.951h-3.407c0-.574.137-1.118.411-1.632a4.366 4.366 0 0 1 1.17-1.388 5.764 5.764 0 0 1 1.838-.964c.72-.232 1.525-.347 2.417-.347 1.053 0 1.992.18 2.814.54.832.35 1.483.882 1.954 1.593.48.711.72 1.607.72 2.687v6.066c0 .695.043 1.29.128 1.787.095.488.232.913.412 1.273v.218h-3.458c-.163-.351-.287-.797-.373-1.337a10.478 10.478 0 0 1-.128-1.62Zm.476-5.514.026 2.018h-2.146c-.532 0-.999.055-1.401.167-.403.102-.733.257-.99.462-.257.197-.45.437-.578.72a2.187 2.187 0 0 0-.193.938c0 .343.077.652.231.926.163.274.394.493.694.655.309.155.669.232 1.08.232.6 0 1.122-.12 1.568-.36.445-.249.793-.548 1.041-.9.249-.351.381-.685.398-1.002l.977 1.465c-.12.351-.3.724-.54 1.118-.24.394-.548.763-.925 1.105a4.713 4.713 0 0 1-1.362.849c-.532.223-1.149.334-1.851.334-.9 0-1.706-.18-2.417-.54a4.284 4.284 0 0 1-1.683-1.478c-.412-.625-.617-1.337-.617-2.134 0-.737.137-1.388.41-1.953a3.747 3.747 0 0 1 1.222-1.427c.54-.394 1.208-.69 2.005-.887.805-.205 1.727-.308 2.763-.308h2.288Z"/></svg>