<svg width="80" height="20" viewBox="0 0 80 20" fill="none" xmlns="http://www.w3.org/2000/svg">
    <path d="M32.8215 14.527C32.8158 14.0395 32.9317 13.5581 33.1589 13.1255C33.4011 12.6856 33.7497 12.3118 34.1735 12.0377C34.6886 11.7054 35.2594 11.4667 35.8592 11.3325C36.6299 11.1553 37.4194 11.071 38.2106 11.0816C38.9119 11.084 39.6123 11.1322 40.3072 11.2259C41.0723 11.3281 41.8304 11.476 42.5775 11.6688C42.5488 11.3371 42.4424 11.0167 42.2667 10.7328C42.0795 10.4356 41.8283 10.1828 41.5311 9.99253C41.1834 9.76988 40.8006 9.6062 40.3985 9.50822C39.9068 9.38843 39.4018 9.33109 38.8955 9.33758C38.5911 9.33758 38.2563 9.35556 37.891 9.39153C37.5257 9.4275 37.1482 9.48145 36.7584 9.55338C36.3686 9.62616 35.9835 9.71691 35.603 9.82565C35.2387 9.92755 34.8829 10.0572 34.5388 10.2134L33.7169 8.01764C34.1245 7.87377 34.5612 7.7412 35.0271 7.61991C35.493 7.49862 35.9695 7.3949 36.4565 7.30874C36.9448 7.22091 37.4306 7.15316 37.9189 7.10548C38.3892 7.05761 38.8616 7.03333 39.3344 7.03271C41.3493 7.03271 42.8476 7.5417 43.8293 8.55967C44.811 9.57764 45.301 11.1381 45.2993 13.2409V17.8833H42.5952V16.8795C42.2989 17.0509 41.9927 17.2051 41.6782 17.3412C41.3265 17.4916 40.9646 17.6174 40.5951 17.7177C40.1827 17.831 39.7633 17.9174 39.3394 17.9761C38.8687 18.0404 38.3941 18.0718 37.9189 18.0702C37.1712 18.082 36.4254 17.9908 35.7031 17.7992C35.1296 17.648 34.5895 17.3927 34.1101 17.0464C33.7032 16.7506 33.3728 16.3636 33.1462 15.9172C32.9306 15.4849 32.8194 15.009 32.8215 14.527ZM35.6714 14.4366C35.6717 14.6129 35.719 14.786 35.8084 14.9385C35.916 15.1147 36.067 15.2611 36.2472 15.3639C36.4874 15.5024 36.748 15.6028 37.0197 15.6612C37.3942 15.7443 37.7774 15.7826 38.1612 15.7754C38.6241 15.7767 39.0861 15.7347 39.5411 15.6499C39.9635 15.5718 40.3788 15.4598 40.7828 15.3149C41.1439 15.1874 41.4925 15.0274 41.8241 14.8369C42.1032 14.6792 42.3636 14.4911 42.6003 14.276V13.8055C42.1851 13.6918 41.7759 13.5956 41.3726 13.517C40.9692 13.4383 40.5824 13.3764 40.212 13.3313C39.843 13.2861 39.4967 13.2547 39.1707 13.2372C38.8448 13.2196 38.5594 13.2096 38.3172 13.2096C37.8947 13.203 37.4726 13.2362 37.0565 13.3087C36.7732 13.3574 36.4987 13.4475 36.2422 13.5759C36.0617 13.6633 35.91 13.7995 35.8046 13.9686C35.7195 14.1104 35.6735 14.2718 35.6714 14.4366Z" fill="#4D8784"/>
    <path d="M46.0332 7.21582H49.1672L51.9702 13.6323L52.7021 15.4303L53.4326 13.6323L56.2369 7.21582H59.3722L54.2659 17.8882H51.142L46.0332 7.21582Z" fill="#4D8784"/>
    <path d="M62.6856 5.77051C62.4386 5.77399 62.1929 5.7358 61.9589 5.65758C61.7569 5.58995 61.5694 5.48571 61.4059 5.35018C61.2581 5.22567 61.1383 5.07178 61.0546 4.8985C60.9711 4.72796 60.9277 4.54094 60.9277 4.35145C60.9273 4.15911 60.9706 3.96913 61.0546 3.79562C61.1372 3.62305 61.2571 3.47056 61.4059 3.34895C61.5702 3.21554 61.7575 3.11268 61.9589 3.04532C62.1929 2.96711 62.4386 2.92892 62.6856 2.93239C62.9351 2.92855 63.1835 2.96674 63.42 3.04532C63.6215 3.11239 63.8089 3.21529 63.973 3.34895C64.1218 3.47056 64.2417 3.62305 64.3243 3.79562C64.4082 3.96914 64.4516 4.15911 64.4512 4.35145C64.4512 4.54094 64.4078 4.72796 64.3243 4.8985C64.2405 5.07178 64.1208 5.22567 63.973 5.35018C63.8097 5.48595 63.6221 5.59022 63.42 5.65758C63.1835 5.73616 62.9351 5.77435 62.6856 5.77051ZM61.3336 7.22469H64.0377V17.8896H61.3336V7.22469Z" fill="#4D8784"/>
    <path d="M66.7659 12.5207C66.7638 11.8056 66.9165 11.0985 67.2136 10.4467C67.5162 9.7814 67.9555 9.18575 68.5035 8.69761C69.1056 8.16692 69.8054 7.75585 70.5645 7.48684C72.3652 6.88101 74.3179 6.88101 76.1186 7.48684C76.8957 7.76351 77.6096 8.18997 78.2189 8.74153C78.7879 9.26586 79.2375 9.904 79.538 10.6135C79.8484 11.3429 80.0054 12.1271 79.9996 12.9184C79.9996 13.02 79.9996 13.1304 79.9996 13.2484C79.9978 13.3554 79.9902 13.4622 79.9768 13.5683H69.7833C69.9039 13.8979 70.0957 14.1976 70.3451 14.4466C70.6273 14.7287 70.9564 14.9609 71.3179 15.1329C71.7467 15.3394 72.2008 15.4899 72.6687 15.5808C73.2283 15.6908 73.7978 15.7437 74.3683 15.7389C74.9915 15.7385 75.6131 15.6733 76.2226 15.5445C76.8209 15.4199 77.4099 15.2551 77.9855 15.0514L78.8987 17.094C78.5491 17.2559 78.1909 17.3992 77.8257 17.5231C77.4551 17.6492 77.0768 17.7518 76.6931 17.8305C76.2858 17.9141 75.8743 17.9761 75.4603 18.0162C75.0303 18.0576 74.5788 18.0789 74.1032 18.0789C73.0245 18.0978 71.9493 17.9514 70.9159 17.6448C70.0823 17.3984 69.304 16.9968 68.6227 16.4616C68.027 15.9904 67.5495 15.3892 67.2276 14.7051C66.9155 14.0186 66.758 13.2733 66.7659 12.5207ZM77.1345 11.4818C77.0337 11.1817 76.8804 10.9014 76.6817 10.6537C76.4685 10.3894 76.2111 10.1632 75.9207 9.98492C75.592 9.78486 75.2351 9.63432 74.8616 9.53826C74.4295 9.42615 73.9842 9.3713 73.5375 9.37515C73.0668 9.37056 72.5975 9.42837 72.1423 9.54704C71.7535 9.64865 71.3812 9.80409 71.0364 10.0088C70.7369 10.1863 70.4698 10.4124 70.2462 10.6775C70.0445 10.9156 69.8884 11.1882 69.7858 11.4818H77.1345Z" fill="#4D8784"/>
    <path d="M23.1583 20C22.5664 20.002 21.983 19.8607 21.4591 19.5883C20.9351 19.3158 20.4866 18.9206 20.1526 18.4372C19.8187 17.9537 19.6095 17.3967 19.5434 16.8148C19.4772 16.233 19.5561 15.6439 19.7732 15.0992C20.4746 13.2736 22.4366 12.3025 23.8749 11.5923C24.0335 11.5145 24.1882 11.438 24.3353 11.3627C24.764 11.1444 25.369 10.8897 26.0577 10.6224C25.9855 6.46689 24.017 4.48698 23.1406 3.80694C21.2508 2.35025 18.5442 2.07924 16.0646 3.09553C17.6627 4.99639 18.255 7.54592 17.6982 10.3075C17.3101 12.2272 15.9225 13.4668 14.1748 13.4668H14.1304C12.3776 13.4668 10.9951 12.2272 10.607 10.3075C10.2328 8.45055 10.4078 6.52836 11.1029 4.89476C11.376 4.24583 11.7379 3.63706 12.1784 3.08549C10.9388 2.49893 9.55704 2.2706 8.19206 2.42678C5.5755 2.73795 2.70528 5.39789 2.43132 9.31252C2.24995 11.8796 3.23924 14.6487 5.14553 16.9084L3.29506 18.4354C0.994315 15.7077 -0.196648 12.3225 0.0265783 9.15067C0.197748 7.01971 1.00023 4.98597 2.33366 3.30381C3.80492 1.46694 5.78223 0.31639 7.90415 0.0629421C10.0612 -0.182092 12.2391 0.292622 14.0923 1.41173C14.4057 1.22406 14.7326 1.05926 15.0702 0.918642C18.3679 -0.461518 22.0257 -0.0713089 24.6156 1.92239C26.8339 3.63254 28.1784 6.4305 28.4206 9.75292C30.3802 9.07163 32.2256 8.49196 32.3664 8.4493L33.0932 10.7215C33.0564 10.7341 30.6098 11.5007 28.4003 12.2912C28.2856 13.6235 27.9706 14.9315 27.4656 16.1719C26.8568 17.6474 25.922 19.4027 24.0842 19.877C23.7821 19.9566 23.471 19.9979 23.1583 20ZM25.832 13.2962C25.6849 13.3614 25.5517 13.4216 25.4362 13.4831L24.9518 13.7253C23.8103 14.2886 22.3935 14.99 22.027 15.9461C21.9233 16.1969 21.907 16.4746 21.9805 16.7356C22.0539 16.9966 22.2131 17.226 22.4329 17.3877C22.5833 17.4923 22.7548 17.5633 22.9357 17.5958C23.1166 17.6283 23.3025 17.6215 23.4805 17.5759C24.2935 17.3651 24.8756 16.1631 25.2396 15.2761C25.5014 14.6362 25.6998 13.9727 25.832 13.2949V13.2962ZM14.1202 4.51333C13.0916 5.73415 12.5056 7.5547 12.9673 9.83824C13.0256 10.1293 13.2831 11.0804 14.1266 11.0804H14.171C15.0144 11.0804 15.2719 10.1293 15.3302 9.83824C15.5877 8.56849 15.7221 6.31633 14.1202 4.51459V4.51333Z" fill="#4D8784"/>
</svg>
